<?xml version="1.0" encoding="UTF-8" standalone="no"?>
<!DOCTYPE svg PUBLIC "-//W3C//DTD SVG 1.1//EN" "http://www.w3.org/Graphics/SVG/1.1/DTD/svg11.dtd">
<!-- Created with Vectornator (http://vectornator.io/) -->
<svg height="120.0px" stroke-miterlimit="10" style="fill-rule:nonzero;clip-rule:evenodd;stroke-linecap:round;stroke-linejoin:round;" version="1.1" viewBox="0 0 1786 120" width="1786.0px" xml:space="preserve" xmlns="http://www.w3.org/2000/svg" xmlns:vectornator="http://vectornator.io" xmlns:xlink="http://www.w3.org/1999/xlink">
<defs>
<filter color-interpolation-filters="sRGB" filterUnits="userSpaceOnUse" height="45.1715" id="Filter" width="72.0935" x="1652.27" y="67.0696">
<feDropShadow dx="2.06121" dy="2.06121" flood-color="#000000" flood-opacity="1" in="SourceGraphic" result="Shadow" stdDeviation="1.45749"/>
</filter>
</defs>
<g id="Background" vectornator:layerName="Background"/>
<clipPath id="ArtboardFrame">
<rect height="120" width="1786" x="0" y="0"/>
</clipPath>
<g clip-path="url(#ArtboardFrame)" id="Overlay" vectornator:layerName="Overlay">
<g opacity="1" vectornator:layerName="Group 6">
<g opacity="1" vectornator:layerName="Group 4">
<g fill="#ffffff" filter="url(#Filter)" stroke="none" vectornator:layerName="Text 20" vectornator:shadowAngle="0.785398" vectornator:shadowColor="#000000" vectornator:shadowOffset="2.91499" vectornator:shadowOpacity="1" vectornator:shadowRadius="2.91499">
<path d="M1663.68 106.536L1659.64 106.536C1657.68 102.784 1656.37 99.9561 1655.7 98.0521C1654.46 94.6361 1653.85 91.1921 1653.85 87.7201C1653.85 84.2481 1654.46 80.8041 1655.7 77.3881C1656.37 75.4841 1657.68 72.6561 1659.64 68.9041L1663.68 68.9041C1660.15 75.3721 1658.38 81.6441 1658.38 87.7201C1658.38 93.7961 1660.15 100.068 1663.68 106.536Z"/>
<path d="M1667.29 99.4801L1667.29 77.8501L1672.5 77.8501L1672.5 99.4801L1667.29 99.4801ZM1667.2 73.7761L1667.2 68.6521L1672.58 68.6521L1672.58 73.7761L1667.2 73.7761Z"/>
<path d="M1677.7 99.4801L1677.7 81.4201C1677.7 79.9081 1677.65 78.7181 1677.54 77.8501L1682.41 77.8501C1682.41 78.2141 1682.44 78.7671 1682.49 79.5091C1682.55 80.2511 1682.58 80.8041 1682.58 81.1681L1682.66 81.1681C1684.09 78.7321 1686.01 77.5141 1688.41 77.5141C1692.67 77.5141 1694.8 80.1881 1694.8 85.5361L1694.8 99.4801L1689.59 99.4801L1689.59 86.5021C1689.59 83.3661 1688.6 81.7981 1686.61 81.7981C1684.14 81.7981 1682.91 83.4921 1682.91 86.8801L1682.91 99.4801L1677.7 99.4801Z"/>
<path d="M1700.09 99.4801L1700.09 94.0201L1705.13 94.0201L1705.13 99.4801L1700.09 99.4801Z"/>
<path d="M1708.83 68.9041L1712.86 68.9041C1714.9 72.8521 1716.23 75.6801 1716.85 77.3881C1718.05 80.7201 1718.65 84.1641 1718.65 87.7201C1718.65 91.2761 1718.05 94.7201 1716.85 98.0521C1716.23 99.7601 1714.9 102.588 1712.86 106.536L1708.83 106.536C1712.35 100.068 1714.12 93.7961 1714.12 87.7201C1714.12 81.6441 1712.35 75.3721 1708.83 68.9041Z"/>
</g>
<g opacity="1" vectornator:layerName="Group 1">
<path d="M1046 60L1131.71 60L1131.71 110L1046 110L1046 60Z" fill="#5cc353" fill-rule="nonzero" opacity="1" stroke="none" vectornator:layerName="Rectangle 17"/>
<path d="M1217.43 60L1303.14 60L1303.14 110L1217.43 110L1217.43 60Z" fill="#1f781e" fill-rule="nonzero" opacity="1" stroke="none" vectornator:layerName="Rectangle 18"/>
<path d="M1388.86 60L1474.57 60L1474.57 110L1388.86 110L1388.86 60Z" fill="#e4e5df" fill-rule="nonzero" opacity="1" stroke="none" vectornator:layerName="Rectangle 19"/>
<path d="M1474.57 60L1560.29 60L1560.29 110L1474.57 110L1474.57 60Z" fill="#d4b4ff" fill-rule="nonzero" opacity="1" stroke="none" vectornator:layerName="Rectangle 20"/>
<path d="M1560.29 60L1646 60L1646 110L1560.29 110L1560.29 60Z" fill="#a04ffb" fill-rule="nonzero" opacity="1" stroke="none" vectornator:layerName="Rectangle 21"/>
<path d="M1131.71 60L1217.43 60L1217.43 110L1131.71 110L1131.71 60Z" fill="#39a741" fill-rule="nonzero" opacity="1" stroke="none" vectornator:layerName="Rectangle 22"/>
<path d="M1303.14 60L1388.86 60L1388.86 110L1303.14 110L1303.14 60Z" fill="#a6aab0" fill-rule="nonzero" opacity="1" stroke="none" vectornator:layerName="Rectangle 23"/>
<g fill="#000000" opacity="1" stroke="none" vectornator:layerName="Text 21">
<path d="M1080.48 92.876L1074.76 92.876L1074.76 98.3721L1080.48 98.3721L1080.48 92.876Z"/>
<path d="M1099 98.3721L1099 70.3584L1094.08 70.3584L1085.73 76.8594L1088.62 80.5713L1093.38 76.5312L1093.38 98.3721L1099 98.3721Z"/>
</g>
<g fill="#000000" opacity="1" stroke="none" vectornator:layerName="Text 26">
<path d="M1166.19 92.876L1160.47 92.876L1160.47 98.3721L1166.19 98.3721L1166.19 92.876Z"/>
<path d="M1171.77 97.9619C1173.55 98.5498 1175.76 98.8438 1178.42 98.8438C1179.95 98.8438 1181.39 98.6489 1182.74 98.2593C1184.1 97.8696 1185.29 97.2886 1186.32 96.5161C1187.35 95.7437 1188.16 94.7524 1188.75 93.5425C1189.34 92.3325 1189.63 90.9482 1189.63 89.3896C1189.63 87.9268 1189.37 86.6245 1188.86 85.4829C1188.34 84.3413 1187.62 83.3945 1186.71 82.6426C1185.8 81.8906 1184.75 81.3198 1183.54 80.9302C1182.34 80.5405 1181.02 80.3457 1179.59 80.3457C1179.03 80.3457 1178.37 80.3799 1177.62 80.4482L1177.78 74.8906L1188.71 74.8906L1188.71 70.5225L1172.45 70.5225L1172.2 85.4727C1173.19 85.2129 1174.07 85.0146 1174.86 84.8779C1175.64 84.7412 1176.45 84.6729 1177.29 84.6729C1179.01 84.6729 1180.5 85.0762 1181.75 85.8828C1183 86.6895 1183.63 87.9131 1183.63 89.5537C1183.63 90.6475 1183.35 91.5464 1182.78 92.2505C1182.22 92.9546 1181.49 93.4639 1180.58 93.7783C1179.67 94.0928 1178.7 94.25 1177.66 94.25C1175.74 94.25 1173.82 93.7783 1171.9 92.835L1171.77 97.9619Z"/>
</g>
<path d="M1264.82 98.3721L1264.82 70.3584L1259.9 70.3584L1251.55 76.8594L1254.44 80.5713L1259.2 76.5312L1259.2 98.3721L1264.82 98.3721Z" fill="#000000" opacity="1" stroke="none" vectornator:layerName="Text 22"/>
<g fill="#000000" opacity="1" stroke="none" vectornator:layerName="Text 23">
<path d="M1405.83 97.8184C1407.12 98.1875 1408.36 98.4507 1409.56 98.6079C1410.75 98.7651 1411.97 98.8438 1413.22 98.8438C1415.03 98.8438 1416.78 98.5703 1418.47 98.0234C1420.15 97.4766 1421.53 96.6016 1422.61 95.3984C1423.69 94.1953 1424.23 92.6777 1424.23 90.8457C1424.23 89.6289 1424 88.4634 1423.53 87.3491C1423.07 86.2349 1422.38 85.3701 1421.46 84.7549C1421.08 84.4951 1420.18 84.1328 1418.77 83.668C1419.74 83.4902 1420.63 83.1006 1421.44 82.499C1422.25 81.8975 1422.87 81.1421 1423.32 80.2329C1423.76 79.3237 1423.98 78.3701 1423.98 77.3721C1423.98 74.7471 1423.07 72.8535 1421.25 71.6914C1419.42 70.5293 1417.1 69.9482 1414.28 69.9482C1411.78 69.9482 1409.22 70.3652 1406.59 71.1992L1406.92 75.8135C1408.78 74.8428 1410.91 74.3574 1413.32 74.3574C1414.08 74.3574 1414.84 74.4634 1415.58 74.6753C1416.33 74.8872 1416.95 75.2393 1417.44 75.7314C1417.93 76.2236 1418.18 76.8662 1418.18 77.6592C1418.18 79.2314 1417.47 80.2979 1416.06 80.8584C1414.64 81.4189 1413.01 81.6992 1411.17 81.6992C1410.39 81.6992 1409.8 81.6855 1409.4 81.6582L1409.4 86.2314C1410.19 86.1768 1410.81 86.1494 1411.25 86.1494C1413.19 86.1494 1414.85 86.4297 1416.23 86.9902C1417.61 87.5508 1418.3 88.6445 1418.3 90.2715C1418.3 91.7207 1417.72 92.7734 1416.57 93.4297C1415.41 94.0859 1414.05 94.4141 1412.48 94.4141C1410.4 94.4141 1408.29 93.9424 1406.16 92.999L1405.83 97.8184Z"/>
<path d="M1436.84 90.1074L1436.84 85.5957L1426.59 85.5957L1426.59 90.1074L1436.84 90.1074Z"/>
<path d="M1456.32 70.9121C1455.37 70.6387 1454.37 70.4097 1453.33 70.2251C1452.29 70.0405 1451.3 69.9482 1450.36 69.9482C1445.9 69.9482 1442.83 71.4316 1441.16 74.3984C1439.48 77.3652 1438.65 81.2686 1438.65 86.1084C1438.65 88.5283 1438.94 90.6851 1439.53 92.5786C1440.12 94.4722 1441.14 95.9897 1442.59 97.1313C1444.05 98.2729 1445.99 98.8438 1448.43 98.8438C1450.37 98.8438 1452.04 98.4678 1453.44 97.7158C1454.84 96.9639 1455.92 95.8804 1456.67 94.4653C1457.42 93.0503 1457.8 91.3721 1457.8 89.4307C1457.8 88.1729 1457.63 86.9868 1457.3 85.8726C1456.96 84.7583 1456.46 83.7603 1455.78 82.8784C1455.1 81.9966 1454.26 81.2993 1453.24 80.7866C1452.22 80.2739 1451.07 80.0176 1449.78 80.0176C1447.31 80.0176 1445.43 80.9268 1444.14 82.7451C1444.33 80.1885 1444.93 78.1411 1445.95 76.603C1446.96 75.0649 1448.64 74.2959 1450.99 74.2959C1452.51 74.2959 1454.05 74.6787 1455.61 75.4443L1456.32 70.9121ZM1452.12 89.5127C1452.12 90.3057 1451.99 91.0986 1451.73 91.8916C1451.47 92.6846 1451.06 93.3408 1450.5 93.8604C1449.94 94.3799 1449.23 94.6396 1448.39 94.6396C1447.51 94.6396 1446.78 94.3662 1446.19 93.8193C1445.6 93.2725 1445.17 92.5889 1444.9 91.7686C1444.63 90.9482 1444.49 90.1143 1444.49 89.2666C1444.49 88.46 1444.62 87.6807 1444.88 86.9287C1445.14 86.1768 1445.55 85.5581 1446.1 85.0728C1446.65 84.5874 1447.35 84.3447 1448.18 84.3447C1449.06 84.3447 1449.79 84.5977 1450.39 85.1035C1450.98 85.6094 1451.42 86.2485 1451.7 87.021C1451.98 87.7935 1452.12 88.624 1452.12 89.5127Z"/>
</g>
<g fill="#000000" opacity="1" stroke="none" vectornator:layerName="Text 27">
<path d="M1334.15 98.3721L1334.15 70.3584L1329.22 70.3584L1320.88 76.8594L1323.77 80.5713L1328.53 76.5312L1328.53 98.3721L1334.15 98.3721Z"/>
<path d="M1351.13 90.1074L1351.13 85.5957L1340.87 85.5957L1340.87 90.1074L1351.13 90.1074Z"/>
<path d="M1352.89 97.8184C1354.18 98.1875 1355.42 98.4507 1356.61 98.6079C1357.81 98.7651 1359.03 98.8438 1360.27 98.8438C1362.09 98.8438 1363.84 98.5703 1365.52 98.0234C1367.21 97.4766 1368.59 96.6016 1369.67 95.3984C1370.75 94.1953 1371.29 92.6777 1371.29 90.8457C1371.29 89.6289 1371.05 88.4634 1370.59 87.3491C1370.12 86.2349 1369.43 85.3701 1368.52 84.7549C1368.13 84.4951 1367.24 84.1328 1365.83 83.668C1366.8 83.4902 1367.69 83.1006 1368.5 82.499C1369.3 81.8975 1369.93 81.1421 1370.37 80.2329C1370.82 79.3237 1371.04 78.3701 1371.04 77.3721C1371.04 74.7471 1370.13 72.8535 1368.3 71.6914C1366.48 70.5293 1364.16 69.9482 1361.34 69.9482C1358.84 69.9482 1356.27 70.3652 1353.65 71.1992L1353.98 75.8135C1355.84 74.8428 1357.97 74.3574 1360.38 74.3574C1361.14 74.3574 1361.9 74.4634 1362.64 74.6753C1363.39 74.8872 1364.01 75.2393 1364.5 75.7314C1364.99 76.2236 1365.24 76.8662 1365.24 77.6592C1365.24 79.2314 1364.53 80.2979 1363.11 80.8584C1361.7 81.4189 1360.07 81.6992 1358.22 81.6992C1357.44 81.6992 1356.86 81.6855 1356.46 81.6582L1356.46 86.2314C1357.25 86.1768 1357.87 86.1494 1358.3 86.1494C1360.25 86.1494 1361.91 86.4297 1363.29 86.9902C1364.67 87.5508 1365.36 88.6445 1365.36 90.2715C1365.36 91.7207 1364.78 92.7734 1363.63 93.4297C1362.47 94.0859 1361.11 94.4141 1359.54 94.4141C1357.46 94.4141 1355.35 93.9424 1353.22 92.999L1352.89 97.8184Z"/>
</g>
<g fill="#000000" opacity="1" stroke="none" vectornator:layerName="Text 24">
<path d="M1498.01 70.9121C1497.05 70.6387 1496.05 70.4097 1495.01 70.2251C1493.97 70.0405 1492.98 69.9482 1492.04 69.9482C1487.58 69.9482 1484.52 71.4316 1482.84 74.3984C1481.17 77.3652 1480.33 81.2686 1480.33 86.1084C1480.33 88.5283 1480.62 90.6851 1481.21 92.5786C1481.8 94.4722 1482.82 95.9897 1484.28 97.1313C1485.73 98.2729 1487.68 98.8438 1490.11 98.8438C1492.05 98.8438 1493.72 98.4678 1495.13 97.7158C1496.53 96.9639 1497.6 95.8804 1498.36 94.4653C1499.11 93.0503 1499.48 91.3721 1499.48 89.4307C1499.48 88.1729 1499.32 86.9868 1498.98 85.8726C1498.65 84.7583 1498.14 83.7603 1497.46 82.8784C1496.79 81.9966 1495.94 81.2993 1494.92 80.7866C1493.9 80.2739 1492.75 80.0176 1491.47 80.0176C1488.99 80.0176 1487.11 80.9268 1485.83 82.7451C1486.02 80.1885 1486.62 78.1411 1487.63 76.603C1488.64 75.0649 1490.32 74.2959 1492.68 74.2959C1494.19 74.2959 1495.73 74.6787 1497.29 75.4443L1498.01 70.9121ZM1493.8 89.5127C1493.8 90.3057 1493.67 91.0986 1493.41 91.8916C1493.15 92.6846 1492.74 93.3408 1492.18 93.8604C1491.62 94.3799 1490.92 94.6396 1490.07 94.6396C1489.2 94.6396 1488.46 94.3662 1487.88 93.8193C1487.29 93.2725 1486.86 92.5889 1486.58 91.7686C1486.31 90.9482 1486.17 90.1143 1486.17 89.2666C1486.17 88.46 1486.3 87.6807 1486.56 86.9287C1486.82 86.1768 1487.23 85.5581 1487.78 85.0728C1488.34 84.5874 1489.03 84.3447 1489.87 84.3447C1490.74 84.3447 1491.48 84.5977 1492.07 85.1035C1492.67 85.6094 1493.1 86.2485 1493.38 87.021C1493.66 87.7935 1493.8 88.624 1493.8 89.5127Z"/>
<path d="M1511.3 90.1074L1511.3 85.5957L1501.04 85.5957L1501.04 90.1074L1511.3 90.1074Z"/>
<path d="M1527.09 98.3721L1527.09 70.3584L1522.17 70.3584L1513.82 76.8594L1516.71 80.5713L1521.47 76.5312L1521.47 98.3721L1527.09 98.3721Z"/>
<path d="M1554.22 93.8809L1542.67 93.9629C1544.29 92.5273 1545.91 90.9141 1547.53 89.123C1549.16 87.332 1550.55 85.4453 1551.7 83.4629C1552.85 81.4805 1553.42 79.6211 1553.42 77.8848C1553.42 76.2031 1553.02 74.7607 1552.23 73.5576C1551.44 72.3545 1550.37 71.4521 1549.03 70.8506C1547.69 70.249 1546.19 69.9482 1544.52 69.9482C1541.76 69.9482 1538.91 70.5908 1535.99 71.876L1536.46 76.8184C1538.76 75.2598 1540.99 74.4805 1543.15 74.4805C1544.38 74.4805 1545.4 74.8394 1546.21 75.5571C1547.02 76.2749 1547.43 77.2559 1547.43 78.5C1547.43 79.5801 1547.01 80.814 1546.16 82.2017C1545.31 83.5894 1544.26 84.9771 1542.99 86.3647C1541.73 87.7524 1540.63 88.8838 1539.71 89.7588C1538.79 90.6338 1537.37 91.9395 1535.45 93.6758L1535.45 98.3721L1554.22 98.3721L1554.22 93.8809Z"/>
</g>
<g fill="#000000" opacity="1" stroke="none" vectornator:layerName="Text 25">
<path d="M1585.16 98.3721L1585.16 70.3584L1580.24 70.3584L1571.89 76.8594L1574.78 80.5713L1579.54 76.5312L1579.54 98.3721L1585.16 98.3721Z"/>
<path d="M1612.29 93.8809L1600.74 93.9629C1602.36 92.5273 1603.98 90.9141 1605.6 89.123C1607.23 87.332 1608.62 85.4453 1609.77 83.4629C1610.92 81.4805 1611.49 79.6211 1611.49 77.8848C1611.49 76.2031 1611.09 74.7607 1610.3 73.5576C1609.51 72.3545 1608.44 71.4521 1607.1 70.8506C1605.76 70.249 1604.26 69.9482 1602.59 69.9482C1599.83 69.9482 1596.98 70.5908 1594.06 71.876L1594.53 76.8184C1596.83 75.2598 1599.05 74.4805 1601.22 74.4805C1602.45 74.4805 1603.47 74.8394 1604.28 75.5571C1605.09 76.2749 1605.5 77.2559 1605.5 78.5C1605.5 79.5801 1605.08 80.814 1604.23 82.2017C1603.38 83.5894 1602.33 84.9771 1601.06 86.3647C1599.8 87.7524 1598.7 88.8838 1597.78 89.7588C1596.86 90.6338 1595.44 91.9395 1593.52 93.6758L1593.52 98.3721L1612.29 98.3721L1612.29 93.8809Z"/>
<path d="M1623.69 85.6367L1623.69 93.3271L1627.55 93.3271L1627.55 85.6367L1635.44 85.6367L1635.44 81.9863L1627.55 81.9863L1627.55 74.2959L1623.69 74.2959L1623.69 81.9863L1615.84 81.9863L1615.84 85.6367L1623.69 85.6367Z"/>
</g>
</g>
</g>
</g>
</g>
</svg>
